<?xml version="1.0" encoding="utf-8"?>
<!-- Generator: Adobe Illustrator 16.0.0, SVG Export Plug-In . SVG Version: 6.00 Build 0)  -->
<!DOCTYPE svg PUBLIC "-//W3C//DTD SVG 1.1//EN" "http://www.w3.org/Graphics/SVG/1.1/DTD/svg11.dtd">
<svg version="1.1" id="Capa_1" xmlns="http://www.w3.org/2000/svg" xmlns:xlink="http://www.w3.org/1999/xlink" x="0px" y="0px"
	 width="396.85px" height="54px" viewBox="0 0 396.85 54" enable-background="new 0 0 396.85 54" xml:space="preserve">
<rect x="0" fill="#D10707" width="396.85" height="36.334"/>
<g>
	<path fill="#FFFFFF" d="M53.034,8.57l14.48,10.301H38.869L53.034,8.57 M45.687,5.63L10.898,30.482h11.788l9.783-7.072h41.296
		l9.679,7.072h11.384L59.683,5.542L45.687,5.63z"/>
	<path fill="#FFFFFF" d="M254.924,5.372h23.185c4.513,0,8.176,3.66,8.176,8.181v2.263h-7.932V15.33c0-1.643-1.339-2.973-2.978-2.973
		h-20.451V5.372 M219.044,19.79c0,1.698,1.331,3.028,2.977,3.028h53.354c1.639,0,2.978-1.33,2.978-2.972l7.932-0.057v1.669
		c0,4.525-3.663,8.183-8.176,8.183h-58.989c-4.517,0-8.181-3.657-8.181-8.183V19.79H219.044z M210.939,13.553
		c0-4.521,3.664-8.181,8.181-8.181h18.104v6.984h-15.201c-1.646,0-2.977,1.33-2.977,2.973v0.486h-8.105L210.939,13.553
		L210.939,13.553z"/>
	<path fill="#FFFFFF" d="M340.64,4.023c-7.781,0-41.06,0.169-41.06,0.169h0.001v1.1c0,0,6.757,0.586,8.272,0.755
		c1.513,0.164,1.265,1.261,1.265,1.261v19.641c0,1.424-8.943,1.424-8.943,1.424v1.439h45.111c14.723,0,36.458-1.772,36.458-12.067
		C381.744,8.656,365.27,4.023,340.64,4.023z M344.521,27.954h-26.399c0,0-1.769-0.253-1.769-2.016V7.227h0.001
		c0,0-0.247-1.602,1.938-1.602c2.188,0,21.055-0.344,26.218-0.083c5.831,0.298,26.629,1.063,26.629,12.203
		C371.139,28.723,348.624,27.954,344.521,27.954z"/>
	<path fill="#FFFFFF" d="M191.222,12.946c-3.626-4.536-11.583-9.003-21.989-9.003c-18.716,0-22.673,11.787-22.673,11.787
		S142.5,4.784,127.6,4.784c-12.461,0-20.979,6.081-20.979,15.683c0,9.594,0.079,11.196,0.079,11.196l3.199-3.962h80.565l3.201,3.962
		V20.467C193.665,20.467,193.665,15.977,191.222,12.946z M144.963,18.357v1.936h-35.824c0,0-2.184-8.274,12.655-8.275h9.004
		C145.183,12.018,144.963,18.357,144.963,18.357z M190.996,20.293h-43.284c0,0-2.19-8.578,12.648-8.579
		c3.517,0-0.308-0.113,14.083-0.113c16.435,0,16.553,6.756,16.553,6.756V20.293z"/>
	<path fill="#1A171B" d="M7.702,43.702c-0.682-0.647-1.34-0.836-1.882-0.836c-0.738,0-1.269,0.39-1.269,0.948
		c0,1.545,3.467,1.521,3.467,4.067c0,1.261-0.954,2.175-2.245,2.175c-0.872,0-1.572-0.233-2.246-0.738v-1.457
		c0.588,0.753,1.329,1.164,2.116,1.164c0.896,0,1.302-0.564,1.302-1.014c0-1.654-3.465-1.845-3.465-4.041
		c0-1.308,0.963-2.142,2.436-2.142c0.608,0,1.224,0.19,1.786,0.563V43.702"/>
	<polyline fill="#1A171B" points="23.099,42.971 19.703,42.971 19.703,45.395 22.981,45.395 22.981,46.427 19.703,46.427 
		19.703,48.918 23.204,48.918 23.204,49.953 18.553,49.953 18.553,41.938 23.099,41.938 23.099,42.971 	"/>
	<path fill="#1A171B" d="M35.739,41.938c1.623,0,2.638,0.861,2.638,2.246c0,0.931-0.485,1.623-1.341,1.965
		c0.729,0.48,1.176,1.221,1.784,2.221c0.343,0.551,0.54,0.82,1.096,1.586h-1.376l-1.06-1.646c-1.056-1.646-1.539-1.832-2.127-1.832
		h-0.479v3.479h-1.154v-8.018H35.739 M34.872,45.438h0.737c1.233,0,1.585-0.631,1.575-1.299c-0.011-0.754-0.457-1.214-1.575-1.214
		h-0.737V45.438z"/>
	<polyline fill="#1A171B" points="51.95,50.021 51.714,50.021 48.247,41.938 49.4,41.938 51.81,47.566 54.205,41.938 55.347,41.938 
		51.95,50.021 	"/>
	<rect x="65.512" y="41.938" fill="#1A171B" width="1.151" height="8.018"/>
	<path fill="#1A171B" d="M84.537,43.725c-0.985-0.582-1.833-0.834-2.765-0.834c-1.835,0-3.196,1.303-3.196,3.066
		c0,1.798,1.316,3.044,3.242,3.044c0.906,0,1.893-0.319,2.798-0.905v1.258c-0.787,0.412-1.644,0.705-2.899,0.705
		c-3.008,0-4.33-2.315-4.33-3.996c0-2.442,1.847-4.231,4.398-4.231c0.82,0,1.658,0.201,2.752,0.661V43.725"/>
	<rect x="95.314" y="41.938" fill="#1A171B" width="1.153" height="8.018"/>
	<path fill="#1A171B" d="M111.456,41.829c2.646,0,4.315,1.884,4.315,4.114c0,2.162-1.623,4.113-4.339,4.113
		c-2.623,0-4.275-1.938-4.275-4.113C107.157,43.725,108.862,41.829,111.456,41.829 M111.456,49.001c1.801,0,3.129-1.306,3.129-3.058
		c0-1.762-1.329-3.053-3.129-3.053c-1.783,0-3.112,1.291-3.112,3.053C108.344,47.695,109.673,49.001,111.456,49.001z"/>
	<path fill="#1A171B" d="M130.263,43.702c-0.679-0.647-1.337-0.836-1.878-0.836c-0.741,0-1.27,0.39-1.27,0.948
		c0,1.545,3.468,1.521,3.468,4.067c0,1.261-0.953,2.175-2.246,2.175c-0.869,0-1.572-0.233-2.245-0.738v-1.457
		c0.586,0.753,1.329,1.164,2.119,1.164c0.891,0,1.3-0.564,1.3-1.014c0-1.654-3.466-1.845-3.466-4.041
		c0-1.308,0.963-2.142,2.435-2.142c0.609,0,1.225,0.19,1.783,0.563V43.702"/>
	<path fill="#1A171B" d="M153.658,41.938h3.114c2.96,0,4.27,2.114,4.27,4.006c0,2.061-1.609,4.012-4.257,4.012h-3.126
		L153.658,41.938 M154.812,48.918h1.833c2.608,0,3.208-1.986,3.208-2.975c0-1.607-1.021-2.973-3.267-2.973h-1.773L154.812,48.918
		L154.812,48.918z"/>
	<polyline fill="#1A171B" points="176.285,42.971 172.89,42.971 172.89,45.395 176.167,45.395 176.167,46.427 172.89,46.427 
		172.89,48.918 176.39,48.918 176.39,49.953 171.74,49.953 171.74,41.938 176.285,41.938 176.285,42.971 	"/>
	<path fill="#1A171B" d="M206.251,43.725c-0.986-0.582-1.832-0.834-2.762-0.834c-1.838,0-3.195,1.303-3.195,3.066
		c0,1.798,1.312,3.044,3.24,3.044c0.901,0,1.894-0.319,2.797-0.905v1.258c-0.787,0.412-1.646,0.705-2.9,0.705
		c-3.011,0-4.326-2.315-4.326-3.996c0-2.442,1.848-4.231,4.396-4.231c0.822,0,1.657,0.201,2.751,0.661L206.251,43.725"/>
	<path fill="#1A171B" d="M220.964,41.829c2.646,0,4.313,1.884,4.313,4.114c0,2.162-1.624,4.113-4.337,4.113
		c-2.623,0-4.277-1.938-4.277-4.113C216.663,43.725,218.368,41.829,220.964,41.829 M220.964,49.001c1.801,0,3.129-1.306,3.129-3.058
		c0-1.762-1.328-3.053-3.129-3.053c-1.786,0-3.115,1.291-3.115,3.053C217.849,47.695,219.178,49.001,220.964,49.001z"/>
	<polyline fill="#1A171B" points="243.415,49.953 242.265,49.953 242.265,43.713 242.24,43.713 239.77,46.812 239.58,46.812 
		237.112,43.713 237.093,43.713 237.093,49.953 235.941,49.953 235.941,41.938 237.021,41.938 239.677,45.229 242.347,41.938 
		243.415,41.938 243.415,49.953 	"/>
	<path fill="#1A171B" d="M261.151,46.803c0,1.963-1.175,3.256-3.562,3.256c-1.691,0-3.337-0.955-3.337-3.138v-4.987h1.15v4.74
		c0,0.903,0.115,1.279,0.481,1.645c0.459,0.457,1.031,0.685,1.727,0.685c0.885,0,1.518-0.284,1.878-0.649
		c0.414-0.408,0.509-0.994,0.509-1.748v-4.668h1.151L261.151,46.803"/>
	<polyline fill="#1A171B" points="279.424,49.953 278.439,49.953 273.08,43.782 273.08,49.953 271.996,49.953 271.996,41.938 
		272.916,41.938 278.345,48.143 278.345,41.938 279.424,41.938 279.424,49.953 	"/>
	<rect x="290.475" y="41.938" fill="#1A171B" width="1.152" height="8.018"/>
	<path fill="#1A171B" d="M309.498,43.725c-0.986-0.582-1.833-0.834-2.764-0.834c-1.835,0-3.194,1.303-3.194,3.066
		c0,1.798,1.316,3.044,3.243,3.044c0.904,0,1.891-0.319,2.797-0.905v1.258c-0.788,0.412-1.646,0.705-2.904,0.705
		c-3.007,0-4.322-2.315-4.322-3.996c0-2.442,1.846-4.231,4.396-4.231c0.82,0,1.656,0.201,2.749,0.661L309.498,43.725"/>
	<path fill="#1A171B" d="M327.516,49.95h-1.176l-1.067-2.362h-3.413l-1.009,2.362h-1.176l3.445-8.06h0.809L327.516,49.95
		 M322.309,46.557h2.492l-1.292-2.906L322.309,46.557z"/>
	<path fill="#1A171B" d="M344.033,43.725c-0.988-0.582-1.838-0.834-2.765-0.834c-1.836,0-3.199,1.303-3.199,3.066
		c0,1.798,1.317,3.044,3.246,3.044c0.904,0,1.893-0.319,2.795-0.905v1.258c-0.784,0.412-1.643,0.705-2.897,0.705
		c-3.01,0-4.331-2.315-4.331-3.996c0-2.442,1.847-4.231,4.398-4.231c0.821,0,1.658,0.201,2.753,0.661V43.725"/>
	<rect x="354.807" y="41.938" fill="#1A171B" width="1.152" height="8.018"/>
	<path fill="#1A171B" d="M370.949,41.831c2.646,0,4.316,1.882,4.316,4.112c0,2.162-1.624,4.113-4.34,4.113
		c-2.623,0-4.277-1.938-4.277-4.113C366.651,43.725,368.355,41.831,370.949,41.831 M370.949,49.001c1.804,0,3.13-1.306,3.13-3.058
		c0-1.764-1.326-3.053-3.13-3.053c-1.783,0-3.112,1.289-3.112,3.053C367.837,47.695,369.166,49.001,370.949,49.001z M372.271,39.682
		l-1.319,1.728h-0.646l0.787-1.728H372.271z"/>
	<polyline fill="#1A171B" points="393.367,49.953 392.38,49.953 387.019,43.782 387.019,49.953 385.94,49.953 385.94,41.938 
		386.859,41.938 392.287,48.143 392.287,41.938 393.367,41.938 393.367,49.953 	"/>
</g>
</svg>
